<svg xmlns="http://www.w3.org/2000/svg" viewBox="0 0 64 64" version="1.1" xmlns:xlink="http://www.w3.org/1999/xlink">
  <defs>
    <linearGradient id="featherGold" x1="0" y1="0" x2="1" y2="1">
      <stop offset="0%" stop-color="#fff8e3"></stop>
      <stop offset="70%" stop-color="#f9d67a"></stop>
      <stop offset="100%" stop-color="#b48a2a"></stop>
    </linearGradient>
    <linearGradient id="wandBody" x1="0" y1="0" x2="1" y2="1">
      <stop offset="0%" stop-color="#f7ead1"></stop>
      <stop offset="50%" stop-color="#d6b978"></stop>
      <stop offset="100%" stop-color="#916c26"></stop>
    </linearGradient>
    <linearGradient id="gemBand" x1="0" y1="0" x2="1" y2="1">
      <stop offset="0%" stop-color="#9ddcff"></stop>
      <stop offset="100%" stop-color="#5aa8ff"></stop>
    </linearGradient>
    <filter id="softGlow" x="-50%" y="-50%" width="200%" height="200%">
      <feGaussianBlur stdDeviation="1.05" result="b"></feGaussianBlur>
      <feMerge><feMergeNode in="b"></feMergeNode><feMergeNode in="SourceGraphic"></feMergeNode></feMerge>
    </filter>
  </defs>

  <!-- Wand shaft (tapered), flowing from left-bottom to right-top -->
  <path d="M16 50
           C 26 44, 36 38, 49 31
           c 1.5 -0.8 3.0 0.1 3.5 1.3
           c 0.5 1.2 0.1 2.6 -1.2 3.3
           C 39 43, 27 51, 17 56
           c -1.6 0.8 -3.0 0.3 -3.6 -0.9
           c -0.6 -2.2 -0.1 -2.6 .2 -3.3 z" fill="url(#wandBody)" filter="url(#softGlow)"></path>

  <!-- Grip bands -->
  <path d="M20.5 47.8 l4.2 3.1" stroke="#caa65a" stroke-width="1.6" stroke-linecap="round" opacity="0.85"></path>
  <path d="M22.6 46.7 l4.2 3.1" stroke="#caa65a" stroke-width="1.4" stroke-linecap="round" opacity="0.85"></path>

  <!-- Decorative gem band near the very tip (still before the cap) -->
  <ellipse cx="51.2" cy="32.9" rx="2.4" ry="1.3" fill="url(#gemBand)" filter="url(#softGlow)"></ellipse>

  <!-- Tip cap / ferrule (connects feather physically at the very end) -->
  <ellipse cx="49.4" cy="33.2" rx="2.6" ry="1.5" fill="#caa65a" filter="url(#softGlow)"></ellipse>

  <!-- Feather plume: anchored AFTER the cap so it is literally the end piece -->
  <path d="M50.4 27.8
           c -4.8 3.2 -6.9 5.7 -7.2 7.7
           c -0.2 1.6 0.6 3.1 2.2 3.6
           c 1.2 0.4 2.9 -0.1 4.8 -1.4
           c 3.6 -2.4 7.2 -6.2 9.6 -10.0
           c 1.7 -2.8 3.2 -5.7 4.6 -8.7
           c -3.8 1.7 -7.4 3.9 -10.8 6.4
           c -1.3 1.0 -2.1 1.7 -3.2 2.4 z" fill="url(#featherGold)" filter="url(#softGlow)" opacity="0.76"></path>

  <!-- Tiny trailing barb detail to finish the end -->
  <path d="M13 52.8 l0.9 1.8 1.8 0.9 -1.8 0.9 -0.9 1.8 -0.9 -1.8 -1.8 -0.9 1.8 -0.9z" fill="#9bd1ff" opacity="0.7"></path>
</svg>